<svg width="78" height="78" viewBox="0 0 78 78" fill="none" xmlns="http://www.w3.org/2000/svg">
<path d="M38.5039 77.3033C59.7669 77.3033 77.0039 60.0663 77.0039 38.8033C77.0039 17.5404 59.7669 0.303345 38.5039 0.303345C17.2409 0.303345 0.00390625 17.5404 0.00390625 38.8033C0.00390625 60.0663 17.2409 77.3033 38.5039 77.3033Z" fill="url(#paint0_linear)"/>
<g filter="url(#filter0_d)">
<path d="M36.5039 22.3033C42.3029 22.3033 47.0039 27.0044 47.0039 32.8033V46.3033C47.0039 47.4079 46.1085 48.3033 45.0039 48.3033H28.0039C26.8993 48.3033 26.0039 47.4079 26.0039 46.3033V32.8033C26.0039 27.0044 30.7049 22.3033 36.5039 22.3033ZM33.0039 37.3033C34.6608 37.3033 36.0039 35.9602 36.0039 34.3033C36.0039 32.6465 34.6608 31.3033 33.0039 31.3033C31.3471 31.3033 30.0039 32.6465 30.0039 34.3033C30.0039 35.9602 31.3471 37.3033 33.0039 37.3033ZM40.0039 37.3033C41.6608 37.3033 43.0039 35.9602 43.0039 34.3033C43.0039 32.6465 41.6608 31.3033 40.0039 31.3033C38.3471 31.3033 37.0039 32.6465 37.0039 34.3033C37.0039 35.9602 38.3471 37.3033 40.0039 37.3033Z" fill="black"/>
</g>
<path d="M36.5039 22.3033C42.3029 22.3033 47.0039 27.0044 47.0039 32.8033V46.3033C47.0039 47.4079 46.1085 48.3033 45.0039 48.3033H28.0039C26.8993 48.3033 26.0039 47.4079 26.0039 46.3033V32.8033C26.0039 27.0044 30.7049 22.3033 36.5039 22.3033ZM33.0039 37.3033C34.6608 37.3033 36.0039 35.9602 36.0039 34.3033C36.0039 32.6465 34.6608 31.3033 33.0039 31.3033C31.3471 31.3033 30.0039 32.6465 30.0039 34.3033C30.0039 35.9602 31.3471 37.3033 33.0039 37.3033ZM40.0039 37.3033C41.6608 37.3033 43.0039 35.9602 43.0039 34.3033C43.0039 32.6465 41.6608 31.3033 40.0039 31.3033C38.3471 31.3033 37.0039 32.6465 37.0039 34.3033C37.0039 35.9602 38.3471 37.3033 40.0039 37.3033Z" fill="white"/>
<path fill-rule="evenodd" clip-rule="evenodd" d="M26.0039 43.3033H47.0039V46.3033C47.0039 47.4079 46.1085 48.3033 45.0039 48.3033H28.0039C26.8993 48.3033 26.0039 47.4079 26.0039 46.3033V43.3033Z" fill="#F0EDFF"/>
<path fill-rule="evenodd" clip-rule="evenodd" d="M49.5039 30.3033C54.1983 30.3033 58.0039 34.1089 58.0039 38.8033V49.3033C58.0039 50.4079 57.1085 51.3033 56.0039 51.3033H43.0039C41.8993 51.3033 41.0039 50.4079 41.0039 49.3033V38.8033C41.0039 34.1089 44.8095 30.3033 49.5039 30.3033Z" fill="#7567DB"/>
<path d="M46.0039 41.3033C46.0039 43.5125 47.5709 45.3033 49.5039 45.3033C51.4369 45.3033 53.0039 43.5125 53.0039 41.3033" stroke="#C4B6F9" stroke-width="2" stroke-linecap="round" stroke-linejoin="round"/>
<defs>
<filter id="filter0_d" x="17.0039" y="22.3033" width="30" height="35" filterUnits="userSpaceOnUse" color-interpolation-filters="sRGB">
<feFlood flood-opacity="0" result="BackgroundImageFix"/>
<feColorMatrix in="SourceAlpha" type="matrix" values="0 0 0 0 0 0 0 0 0 0 0 0 0 0 0 0 0 0 127 0" result="hardAlpha"/>
<feOffset dx="-5" dy="5"/>
<feGaussianBlur stdDeviation="2"/>
<feColorMatrix type="matrix" values="0 0 0 0 0.356863 0 0 0 0 0.313726 0 0 0 0 0.760784 0 0 0 0.1 0"/>
<feBlend mode="normal" in2="BackgroundImageFix" result="effect1_dropShadow"/>
<feBlend mode="normal" in="SourceGraphic" in2="effect1_dropShadow" result="shape"/>
</filter>
<linearGradient id="paint0_linear" x1="64.4258" y1="77.3033" x2="-15.7744" y2="-10.5658" gradientUnits="userSpaceOnUse">
<stop stop-color="#E7D1FF"/>
<stop offset="1" stop-color="#8383EF"/>
</linearGradient>
</defs>
</svg>
