<svg id="Capa_1" data-name="Capa 1" xmlns="http://www.w3.org/2000/svg" viewBox="0 0 511.76 78.51" style="width: 90px;fill: white"><defs><style></style></defs><g id="Grupo_17" data-name="Grupo 17"><path id="Trazado_28" data-name="Trazado 28" class="cls-1" d="M37.65,362.15h22v12.67H21.12V306.47H37.65Z" transform="translate(-21.12 -297)"/><path id="Trazado_29" data-name="Trazado 29" class="cls-1" d="M68.49,299.46a11.62,11.62,0,0,1,14.3,0,8.09,8.09,0,0,1,2.71,6.24,8,8,0,0,1-2.71,6.14,11.59,11.59,0,0,1-14.3,0,8.45,8.45,0,0,1,0-12.38Zm15.37,21.42v53.94H67.33V320.88Z" transform="translate(-21.12 -297)"/><path id="Trazado_30" data-name="Trazado 30" class="cls-1" d="M126.39,323a16.84,16.84,0,0,1,6.57,7.64v-9.76H149.4v53.94H133v-9.76a16.82,16.82,0,0,1-6.57,7.63,19.45,19.45,0,0,1-10.64,2.8,21.84,21.84,0,0,1-11.94-3.33,22.86,22.86,0,0,1-8.31-9.62,37.1,37.1,0,0,1,0-29.44,23,23,0,0,1,8.31-9.57,21.84,21.84,0,0,1,11.94-3.33A19.52,19.52,0,0,1,126.39,323Zm-13.87,15.18a16.07,16.07,0,0,0,0,19.33,12.14,12.14,0,0,0,17.11-.09,15.46,15.46,0,0,0,0-19.19,11.27,11.27,0,0,0-8.56-3.53,11.14,11.14,0,0,0-8.55,3.48Z" transform="translate(-21.12 -297)"/><path id="Trazado_31" data-name="Trazado 31" class="cls-1" d="M209.77,326.48q5.46,6.19,5.46,17v31.33H198.7v-29.4a12,12,0,0,0-2.85-8.47,9.9,9.9,0,0,0-7.59-3,10.32,10.32,0,0,0-8,3.19,12.93,12.93,0,0,0-2.95,9.09v28.61H160.8V320.87h16.53v9.86a17.77,17.77,0,0,1,6.91-7.63A20.25,20.25,0,0,1,195,320.29,18.69,18.69,0,0,1,209.77,326.48Z" transform="translate(-21.12 -297)"/><path id="Trazado_32" data-name="Trazado 32" class="cls-1" d="M257.28,323a16.9,16.9,0,0,1,6.57,7.64v-9.76h16.44v53.94H263.85v-9.76a16.88,16.88,0,0,1-6.57,7.63,19.45,19.45,0,0,1-10.64,2.8,21.82,21.82,0,0,1-11.94-3.33,22.86,22.86,0,0,1-8.31-9.62,37.1,37.1,0,0,1,0-29.44,22.93,22.93,0,0,1,8.31-9.57,21.82,21.82,0,0,1,11.94-3.33A19.54,19.54,0,0,1,257.28,323Zm-13.87,15.18a16.07,16.07,0,0,0,0,19.33,12.14,12.14,0,0,0,17.11-.09,15.46,15.46,0,0,0,0-19.19,12.21,12.21,0,0,0-17.12-.05Z" transform="translate(-21.12 -297)"/><path id="Trazado_33" data-name="Trazado 33" class="cls-2" d="M384.59,306.47l-16.34,68.35H347.76l-10.92-45.73-11,45.73H305.32L289,306.47h18l8.79,49.5,12-49.5h18.08l12,49.5,8.89-49.5Z" transform="translate(-21.12 -297)"/><path id="Trazado_34" data-name="Trazado 34" class="cls-2" d="M444.05,350.85H406.63c.19,4,1.22,7,3.09,8.74a10,10,0,0,0,7.15,2.66,9.74,9.74,0,0,0,6.09-1.83,8.54,8.54,0,0,0,3.19-4.74h17.5a22.94,22.94,0,0,1-4.64,10.2,24.67,24.67,0,0,1-9.08,7.05,31,31,0,0,1-26.35-.77,23.89,23.89,0,0,1-9.62-9.62,33.06,33.06,0,0,1,0-29.44,23.56,23.56,0,0,1,9.61-9.57,31.74,31.74,0,0,1,28.23,0,23.21,23.21,0,0,1,9.43,9.23,27.43,27.43,0,0,1,3.33,13.68A23,23,0,0,1,444.05,350.85ZM425,335.91a10.47,10.47,0,0,0-7.3-2.66,10.88,10.88,0,0,0-7.54,2.7,11.37,11.37,0,0,0-3.38,7.93H427.8a9.92,9.92,0,0,0-2.85-8Z" transform="translate(-21.12 -297)"/><path id="Trazado_35" data-name="Trazado 35" class="cls-2" d="M498.7,323.54a22.89,22.89,0,0,1,8.32,9.57,37.08,37.08,0,0,1,0,29.43,22.82,22.82,0,0,1-8.32,9.62,21.89,21.89,0,0,1-11.94,3.34,19.49,19.49,0,0,1-10.63-2.81,16.24,16.24,0,0,1-6.48-7.63v9.76H453.12V303.29h16.53v27.35a16.24,16.24,0,0,1,6.48-7.63,19.4,19.4,0,0,1,10.63-2.8A21.79,21.79,0,0,1,498.7,323.54Zm-25.81,14.69a15.49,15.49,0,0,0,0,19.19,12.14,12.14,0,0,0,17.11.1,16.05,16.05,0,0,0,0-19.34,12.19,12.19,0,0,0-17.11.05Z" transform="translate(-21.12 -297)"/><path id="Trazado_36" data-name="Trazado 36" class="cls-2" d="M532.87,358.29v16.53h-17.1V358.29Z" transform="translate(-21.12 -297)"/></g></svg>
