<svg width="77" height="77" viewBox="0 0 77 77" fill="none" xmlns="http://www.w3.org/2000/svg">
<path d="M38.5 77C59.763 77 77 59.763 77 38.5C77 17.237 59.763 0 38.5 0C17.237 0 0 17.237 0 38.5C0 59.763 17.237 77 38.5 77Z" fill="url(#paint0_linear)"/>
<g filter="url(#filter0_d)">
<path d="M46 27H31C28.7909 27 27 28.7909 27 31V46C27 48.2091 28.7909 50 31 50H46C48.2091 50 50 48.2091 50 46V31C50 28.7909 48.2091 27 46 27Z" fill="black"/>
</g>
<path d="M46 27H31C28.7909 27 27 28.7909 27 31V46C27 48.2091 28.7909 50 31 50H46C48.2091 50 50 48.2091 50 46V31C50 28.7909 48.2091 27 46 27Z" fill="white"/>
<path fill-rule="evenodd" clip-rule="evenodd" d="M31 27H46C48.2091 27 50 28.7909 50 31V32H27V31C27 28.7909 28.7909 27 31 27V27Z" fill="#FFF3E5"/>
<path fill-rule="evenodd" clip-rule="evenodd" d="M31 50H46C48.2091 50 50 48.2091 50 46V45H27V46C27 48.2091 28.7909 50 31 50Z" fill="#FFF3E5"/>
<path d="M48 20.5C41.0964 20.5 35.5 26.0964 35.5 33C35.5 39.9036 41.0964 45.5 48 45.5C54.9036 45.5 60.5 39.9036 60.5 33C60.5 26.0964 54.9036 20.5 48 20.5Z" fill="#FF9147"/>
<path fill-rule="evenodd" clip-rule="evenodd" d="M44.9009 35.8509V30.1491C44.9009 29.4587 45.4606 28.8991 46.1509 28.8991C46.4271 28.8991 46.6954 28.9905 46.9141 29.1591L50.6122 32.01C51.1589 32.4315 51.2605 33.2164 50.839 33.7632C50.7734 33.8482 50.6972 33.9244 50.6122 33.99L46.9141 36.8409C46.3674 37.2624 45.5825 37.1608 45.161 36.6141C44.9924 36.3954 44.9009 36.127 44.9009 35.8509Z" fill="white"/>
<defs>
<filter id="filter0_d" x="18" y="27" width="32" height="32" filterUnits="userSpaceOnUse" color-interpolation-filters="sRGB">
<feFlood flood-opacity="0" result="BackgroundImageFix"/>
<feColorMatrix in="SourceAlpha" type="matrix" values="0 0 0 0 0 0 0 0 0 0 0 0 0 0 0 0 0 0 127 0" result="hardAlpha"/>
<feOffset dx="-5" dy="5"/>
<feGaussianBlur stdDeviation="2"/>
<feColorMatrix type="matrix" values="0 0 0 0 0.730283 0 0 0 0 0.44836 0 0 0 0 0.188406 0 0 0 0.1 0"/>
<feBlend mode="normal" in2="BackgroundImageFix" result="effect1_dropShadow"/>
<feBlend mode="normal" in="SourceGraphic" in2="effect1_dropShadow" result="shape"/>
</filter>
<linearGradient id="paint0_linear" x1="1.38268" y1="-8.92885" x2="77" y2="77" gradientUnits="userSpaceOnUse">
<stop stop-color="#FFAF73"/>
<stop offset="1" stop-color="#FFFECC"/>
</linearGradient>
</defs>
</svg>
