<svg width="77" height="78" viewBox="0 0 77 78" fill="none" xmlns="http://www.w3.org/2000/svg">
<path d="M38.5 77.3033C59.763 77.3033 77 60.0663 77 38.8033C77 17.5404 59.763 0.303345 38.5 0.303345C17.237 0.303345 0 17.5404 0 38.8033C0 60.0663 17.237 77.3033 38.5 77.3033Z" fill="url(#paint0_linear)"/>
<g filter="url(#filter0_d)">
<path d="M50 27.3033H27C25.8954 27.3033 25 28.1988 25 29.3033V49.3033C25 50.4079 25.8954 51.3033 27 51.3033H50C51.1046 51.3033 52 50.4079 52 49.3033V29.3033C52 28.1988 51.1046 27.3033 50 27.3033Z" fill="black"/>
</g>
<path d="M50 27.3033H27C25.8954 27.3033 25 28.1988 25 29.3033V49.3033C25 50.4079 25.8954 51.3033 27 51.3033H50C51.1046 51.3033 52 50.4079 52 49.3033V29.3033C52 28.1988 51.1046 27.3033 50 27.3033Z" fill="white"/>
<path d="M49 29.3033H28C27.4477 29.3033 27 29.7511 27 30.3033V43.3033C27 43.8556 27.4477 44.3033 28 44.3033H49C49.5523 44.3033 50 43.8556 50 43.3033V30.3033C50 29.7511 49.5523 29.3033 49 29.3033Z" fill="#E8F9ED"/>
<path d="M56 37.3033H39C37.8954 37.3033 37 38.1988 37 39.3033V52.1033C37 53.2079 37.8954 54.1033 39 54.1033H56C57.1046 54.1033 58 53.2079 58 52.1033V39.3033C58 38.1988 57.1046 37.3033 56 37.3033Z" fill="#47BF82"/>
<path d="M45.4 49.9034C47.7196 49.9034 49.6 48.023 49.6 45.7034C49.6 43.3838 47.7196 41.5034 45.4 41.5034C43.0804 41.5034 41.2 43.3838 41.2 45.7034C41.2 48.023 43.0804 49.9034 45.4 49.9034Z" fill="white"/>
<path d="M51.755 40.9783H54.1792" stroke="white" stroke-width="3" stroke-linecap="round" stroke-linejoin="round"/>
<defs>
<filter id="filter0_d" x="16" y="27.3033" width="36" height="33" filterUnits="userSpaceOnUse" color-interpolation-filters="sRGB">
<feFlood flood-opacity="0" result="BackgroundImageFix"/>
<feColorMatrix in="SourceAlpha" type="matrix" values="0 0 0 0 0 0 0 0 0 0 0 0 0 0 0 0 0 0 127 0" result="hardAlpha"/>
<feOffset dx="-5" dy="5"/>
<feGaussianBlur stdDeviation="2"/>
<feColorMatrix type="matrix" values="0 0 0 0 0.204768 0 0 0 0 0.66765 0 0 0 0 0.420248 0 0 0 0.1 0"/>
<feBlend mode="normal" in2="BackgroundImageFix" result="effect1_dropShadow"/>
<feBlend mode="normal" in="SourceGraphic" in2="effect1_dropShadow" result="shape"/>
</filter>
<linearGradient id="paint0_linear" x1="1.38268" y1="-8.62551" x2="77" y2="77.3033" gradientUnits="userSpaceOnUse">
<stop stop-color="#59DBB0"/>
<stop offset="1" stop-color="#FEFFB5"/>
</linearGradient>
</defs>
</svg>
