<svg width="78" height="77" viewBox="0 0 78 77" fill="none" xmlns="http://www.w3.org/2000/svg">
<path d="M38.5019 77C59.7649 77 77.0019 59.763 77.0019 38.5C77.0019 17.237 59.7649 0 38.5019 0C17.2389 0 0.00189209 17.237 0.00189209 38.5C0.00189209 59.763 17.2389 77 38.5019 77Z" fill="url(#paint0_linear)"/>
<g filter="url(#filter0_d)">
<path d="M46.0019 27H31.0019C28.7928 27 27.0019 28.7909 27.0019 31V46C27.0019 48.2091 28.7928 50 31.0019 50H46.0019C48.211 50 50.0019 48.2091 50.0019 46V31C50.0019 28.7909 48.211 27 46.0019 27Z" fill="black"/>
</g>
<path d="M46.0019 27H31.0019C28.7928 27 27.0019 28.7909 27.0019 31V46C27.0019 48.2091 28.7928 50 31.0019 50H46.0019C48.211 50 50.0019 48.2091 50.0019 46V31C50.0019 28.7909 48.211 27 46.0019 27Z" fill="white"/>
<path d="M41.0019 32H36.0019C33.7928 32 32.0019 33.7909 32.0019 36V41C32.0019 43.2091 33.7928 45 36.0019 45H41.0019C43.211 45 45.0019 43.2091 45.0019 41V36C45.0019 33.7909 43.211 32 41.0019 32Z" fill="#FFE2E0"/>
<path d="M48.8437 37.097H42.4597L41.3317 40.025H35.5717L42.9157 23.225H48.4837L55.8277 40.025H49.9717L48.8437 37.097ZM47.2837 33.017L45.6517 28.793L44.0197 33.017H47.2837Z" fill="#E86A63"/>
<defs>
<filter id="filter0_d" x="18.0019" y="27" width="32" height="32" filterUnits="userSpaceOnUse" color-interpolation-filters="sRGB">
<feFlood flood-opacity="0" result="BackgroundImageFix"/>
<feColorMatrix in="SourceAlpha" type="matrix" values="0 0 0 0 0 0 0 0 0 0 0 0 0 0 0 0 0 0 127 0" result="hardAlpha"/>
<feOffset dx="-5" dy="5"/>
<feGaussianBlur stdDeviation="2"/>
<feColorMatrix type="matrix" values="0 0 0 0 0.809391 0 0 0 0 0.273807 0 0 0 0 0.247218 0 0 0 0.1 0"/>
<feBlend mode="normal" in2="BackgroundImageFix" result="effect1_dropShadow"/>
<feBlend mode="normal" in="SourceGraphic" in2="effect1_dropShadow" result="shape"/>
</filter>
<linearGradient id="paint0_linear" x1="0.00189209" y1="0" x2="61.7678" y2="77" gradientUnits="userSpaceOnUse">
<stop stop-color="#FF8989"/>
<stop offset="1" stop-color="#FFDDC5"/>
</linearGradient>
</defs>
</svg>
