<svg width="78" height="77" viewBox="0 0 78 77" fill="none" xmlns="http://www.w3.org/2000/svg">
<path d="M38.5039 77C59.7669 77 77.0039 59.763 77.0039 38.5C77.0039 17.237 59.7669 0 38.5039 0C17.2409 0 0.00390625 17.237 0.00390625 38.5C0.00390625 59.763 17.2409 77 38.5039 77Z" fill="url(#paint0_linear)"/>
<g filter="url(#filter0_d)">
<path d="M52.0039 28H29.0039C27.8993 28 27.0039 28.8954 27.0039 30V45C27.0039 46.1046 27.8993 47 29.0039 47H52.0039C53.1085 47 54.0039 46.1046 54.0039 45V30C54.0039 28.8954 53.1085 28 52.0039 28Z" fill="black"/>
</g>
<path d="M52.0039 28H29.0039C27.8993 28 27.0039 28.8954 27.0039 30V45C27.0039 46.1046 27.8993 47 29.0039 47H52.0039C53.1085 47 54.0039 46.1046 54.0039 45V30C54.0039 28.8954 53.1085 28 52.0039 28Z" fill="white"/>
<path fill-rule="evenodd" clip-rule="evenodd" d="M29.0039 28H52.0039C53.1085 28 54.0039 28.8954 54.0039 30V33H27.0039V30C27.0039 28.8954 27.8993 28 29.0039 28Z" fill="#FFE6F6"/>
<path d="M49.0039 40H57.0039" stroke="#E778C1" stroke-width="4" stroke-linecap="round" stroke-linejoin="round"/>
<path d="M41.5039 39L48.8701 34.3128" stroke="#E778C1" stroke-width="4" stroke-linecap="round" stroke-linejoin="round"/>
<path d="M41.5039 29.3128L48.8701 34" stroke="#E778C1" stroke-width="4" stroke-linecap="round" stroke-linejoin="round"/>
<defs>
<filter id="filter0_d" x="18.0039" y="28" width="36" height="28" filterUnits="userSpaceOnUse" color-interpolation-filters="sRGB">
<feFlood flood-opacity="0" result="BackgroundImageFix"/>
<feColorMatrix in="SourceAlpha" type="matrix" values="0 0 0 0 0 0 0 0 0 0 0 0 0 0 0 0 0 0 127 0" result="hardAlpha"/>
<feOffset dx="-5" dy="5"/>
<feGaussianBlur stdDeviation="2"/>
<feColorMatrix type="matrix" values="0 0 0 0 0.835294 0 0 0 0 0.305882 0 0 0 0 0.67451 0 0 0 0.1 0"/>
<feBlend mode="normal" in2="BackgroundImageFix" result="effect1_dropShadow"/>
<feBlend mode="normal" in="SourceGraphic" in2="effect1_dropShadow" result="shape"/>
</filter>
<linearGradient id="paint0_linear" x1="0.00390625" y1="0" x2="77.0039" y2="77" gradientUnits="userSpaceOnUse">
<stop stop-color="#FFA8E8"/>
<stop offset="1" stop-color="#FFE6E6"/>
</linearGradient>
</defs>
</svg>
