<svg width="123" height="122" viewBox="0 0 123 122" fill="none" xmlns="http://www.w3.org/2000/svg">
<rect x="0.923889" y="0.364174" width="121.105" height="121.105" rx="10" fill="#10EB7D"/>
<path d="M45.8152 87.1567H67.8152V99.8267H29.2852V31.4767H45.8152V87.1567Z" fill="#3F28EB"/>
<path d="M76.6552 24.4667C78.6976 22.8725 81.2142 22.0065 83.8052 22.0065C86.3962 22.0065 88.9128 22.8725 90.9552 24.4667C91.8329 25.2477 92.53 26.2104 92.998 27.288C93.466 28.3656 93.6937 29.5322 93.6652 30.7067C93.6851 31.8654 93.4531 33.0145 92.9852 34.0747C92.5173 35.1348 91.8247 36.0806 90.9552 36.8467C88.915 38.4459 86.3975 39.315 83.8052 39.315C81.2129 39.315 78.6954 38.4459 76.6552 36.8467C75.8041 36.0559 75.1253 35.098 74.6611 34.0329C74.1969 32.9679 73.9573 31.8185 73.9573 30.6567C73.9573 29.4949 74.1969 28.3456 74.6611 27.2805C75.1253 26.2155 75.8041 25.2576 76.6552 24.4667ZM92.0252 45.8867V99.8267H75.4952V45.8867H92.0252Z" fill="#3F28EB"/>
</svg>
