<svg width="78" height="78" viewBox="0 0 78 78" fill="none" xmlns="http://www.w3.org/2000/svg">
<mask id="mask0" mask-type="alpha" maskUnits="userSpaceOnUse" x="0" y="0" width="78" height="78">
<path d="M39.0019 77.8033C60.2649 77.8033 77.5019 60.5663 77.5019 39.3033C77.5019 18.0404 60.2649 0.803345 39.0019 0.803345C17.7389 0.803345 0.501892 18.0404 0.501892 39.3033C0.501892 60.5663 17.7389 77.8033 39.0019 77.8033Z" fill="white"/>
</mask>
<g mask="url(#mask0)">
<path d="M39.0019 77.8033C60.2649 77.8033 77.5019 60.5663 77.5019 39.3033C77.5019 18.0404 60.2649 0.803345 39.0019 0.803345C17.7389 0.803345 0.501892 18.0404 0.501892 39.3033C0.501892 60.5663 17.7389 77.8033 39.0019 77.8033Z" fill="url(#paint0_linear)"/>
<g filter="url(#filter0_d)">
<path d="M51.5019 29.8033H28.5019C27.3973 29.8033 26.5019 30.6988 26.5019 31.8033V46.8033C26.5019 47.9079 27.3973 48.8033 28.5019 48.8033H51.5019C52.6065 48.8033 53.5019 47.9079 53.5019 46.8033V31.8033C53.5019 30.6988 52.6065 29.8033 51.5019 29.8033Z" fill="black"/>
</g>
<path d="M51.5019 29.8033H28.5019C27.3973 29.8033 26.5019 30.6988 26.5019 31.8033V46.8033C26.5019 47.9079 27.3973 48.8033 28.5019 48.8033H51.5019C52.6065 48.8033 53.5019 47.9079 53.5019 46.8033V31.8033C53.5019 30.6988 52.6065 29.8033 51.5019 29.8033Z" fill="white"/>
<path fill-rule="evenodd" clip-rule="evenodd" d="M28.5019 29.8033H51.5019C52.6065 29.8033 53.5019 30.6988 53.5019 31.8033V34.8033H26.5019V31.8033C26.5019 30.6988 27.3973 29.8033 28.5019 29.8033Z" fill="#D6E5FF"/>
<path d="M55.5019 23.8033H42.5019C41.3973 23.8033 40.5019 24.6988 40.5019 25.8033V41.8033C40.5019 42.9079 41.3973 43.8033 42.5019 43.8033H55.5019C56.6065 43.8033 57.5019 42.9079 57.5019 41.8033V25.8033C57.5019 24.6988 56.6065 23.8033 55.5019 23.8033Z" fill="#4C82DE"/>
<path d="M49.0019 40.8033C49.8303 40.8033 50.5019 40.1318 50.5019 39.3033C50.5019 38.4749 49.8303 37.8033 49.0019 37.8033C48.1735 37.8033 47.5019 38.4749 47.5019 39.3033C47.5019 40.1318 48.1735 40.8033 49.0019 40.8033Z" fill="white"/>
</g>
<defs>
<filter id="filter0_d" x="17.5019" y="29.8033" width="36" height="28" filterUnits="userSpaceOnUse" color-interpolation-filters="sRGB">
<feFlood flood-opacity="0" result="BackgroundImageFix"/>
<feColorMatrix in="SourceAlpha" type="matrix" values="0 0 0 0 0 0 0 0 0 0 0 0 0 0 0 0 0 0 127 0" result="hardAlpha"/>
<feOffset dx="-5" dy="5"/>
<feGaussianBlur stdDeviation="2"/>
<feColorMatrix type="matrix" values="0 0 0 0 0.219608 0 0 0 0 0.372549 0 0 0 0 0.623529 0 0 0 0.1 0"/>
<feBlend mode="normal" in2="BackgroundImageFix" result="effect1_dropShadow"/>
<feBlend mode="normal" in="SourceGraphic" in2="effect1_dropShadow" result="shape"/>
</filter>
<linearGradient id="paint0_linear" x1="10.2263" y1="2.6005" x2="90.7333" y2="100.997" gradientUnits="userSpaceOnUse">
<stop stop-color="#9CB3FF"/>
<stop offset="1" stop-color="#B0FFE9"/>
</linearGradient>
</defs>
</svg>
